<mxfile host="app.diagrams.net" modified="2021-09-26T16:14:24.717Z" agent="5.0 (Windows NT 10.0; Win64; x64) AppleWebKit/537.36 (KHTML, like Gecko) Chrome/93.0.4577.82 Safari/537.36" etag="dwdUh_u0A75BFVTdYN3z" version="15.3.3" type="github">
  <diagram id="MAaFVeC6H0J-vM4f-zfk" name="Page-1">
    <mxGraphModel dx="1488" dy="605" grid="0" gridSize="10" guides="1" tooltips="1" connect="1" arrows="1" fold="1" page="1" pageScale="1" pageWidth="1169" pageHeight="827" math="0" shadow="0">
      <root>
        <mxCell id="0" />
        <mxCell id="1" parent="0" />
        <mxCell id="Z31YwW47jr1Y_mebFR8F-1" value="Level 0" style="swimlane;childLayout=stackLayout;horizontal=1;startSize=30;horizontalStack=0;rounded=1;fontSize=14;fontStyle=0;strokeWidth=2;resizeParent=0;resizeLast=1;shadow=0;dashed=0;align=center;hachureGap=4;pointerEvents=0;fillColor=#dae8fc;strokeColor=#6c8ebf;" vertex="1" parent="1">
          <mxGeometry x="530" y="360" width="150" height="200" as="geometry" />
        </mxCell>
        <mxCell id="Z31YwW47jr1Y_mebFR8F-2" value="&#xa;&#xa;&#xa;Transport Schedule &#xa;Management System &#xa;for Office Employee" style="align=center;spacingLeft=4;fontSize=14;verticalAlign=top;resizable=0;rotatable=0;part=1;fontStyle=1" vertex="1" parent="Z31YwW47jr1Y_mebFR8F-1">
          <mxGeometry y="30" width="150" height="170" as="geometry" />
        </mxCell>
        <mxCell id="Z31YwW47jr1Y_mebFR8F-4" value="&lt;b&gt;Admin&lt;/b&gt;" style="rounded=1;arcSize=10;whiteSpace=wrap;html=1;align=center;hachureGap=4;pointerEvents=0;fontSize=14;fillColor=#e1d5e7;strokeColor=#9673a6;" vertex="1" parent="1">
          <mxGeometry x="1020" y="520" width="100" height="40" as="geometry" />
        </mxCell>
        <mxCell id="Z31YwW47jr1Y_mebFR8F-5" value="&lt;b&gt;Driver&lt;/b&gt;" style="whiteSpace=wrap;html=1;align=center;hachureGap=4;pointerEvents=0;fontSize=14;fillColor=#f8cecc;strokeColor=#b85450;" vertex="1" parent="1">
          <mxGeometry x="140" y="520" width="100" height="40" as="geometry" />
        </mxCell>
        <mxCell id="Z31YwW47jr1Y_mebFR8F-6" value="&lt;b&gt;Office Employee&lt;/b&gt;" style="rounded=1;arcSize=10;whiteSpace=wrap;html=1;align=center;hachureGap=4;pointerEvents=0;fontSize=14;fillColor=#f8cecc;strokeColor=#b85450;" vertex="1" parent="1">
          <mxGeometry x="140" y="320" width="100" height="40" as="geometry" />
        </mxCell>
        <mxCell id="Z31YwW47jr1Y_mebFR8F-7" value="" style="endArrow=classic;html=1;fontSize=14;sourcePerimeterSpacing=8;targetPerimeterSpacing=8;entryX=0.451;entryY=0.006;entryDx=0;entryDy=0;entryPerimeter=0;" edge="1" parent="1" target="Z31YwW47jr1Y_mebFR8F-1">
          <mxGeometry width="50" height="50" relative="1" as="geometry">
            <mxPoint x="1100" y="520" as="sourcePoint" />
            <mxPoint x="640" y="400" as="targetPoint" />
            <Array as="points">
              <mxPoint x="1100" y="320" />
              <mxPoint x="598" y="320" />
            </Array>
          </mxGeometry>
        </mxCell>
        <mxCell id="Z31YwW47jr1Y_mebFR8F-8" value="Arrange Schedule" style="text;html=1;align=center;verticalAlign=middle;resizable=0;points=[];autosize=1;strokeColor=none;fillColor=none;fontSize=14;" vertex="1" parent="1">
          <mxGeometry x="770" y="300" width="130" height="20" as="geometry" />
        </mxCell>
        <mxCell id="Z31YwW47jr1Y_mebFR8F-9" value="" style="endArrow=classic;html=1;fontSize=14;sourcePerimeterSpacing=8;targetPerimeterSpacing=8;exitX=0.616;exitY=-0.03;exitDx=0;exitDy=0;exitPerimeter=0;entryX=0.75;entryY=0;entryDx=0;entryDy=0;" edge="1" parent="1" source="Z31YwW47jr1Y_mebFR8F-4" target="Z31YwW47jr1Y_mebFR8F-1">
          <mxGeometry width="50" height="50" relative="1" as="geometry">
            <mxPoint x="800" y="450" as="sourcePoint" />
            <mxPoint x="850" y="400" as="targetPoint" />
            <Array as="points">
              <mxPoint x="1082" y="340" />
              <mxPoint x="643" y="340" />
            </Array>
          </mxGeometry>
        </mxCell>
        <mxCell id="Z31YwW47jr1Y_mebFR8F-10" value="&lt;span style=&quot;font-style: normal&quot;&gt;Can Appoint Driver&lt;/span&gt;" style="edgeLabel;html=1;align=center;verticalAlign=middle;resizable=0;points=[];fontSize=14;fontStyle=2" vertex="1" connectable="0" parent="Z31YwW47jr1Y_mebFR8F-9">
          <mxGeometry x="0.4995" y="-4" relative="1" as="geometry">
            <mxPoint x="57" y="-6" as="offset" />
          </mxGeometry>
        </mxCell>
        <mxCell id="Z31YwW47jr1Y_mebFR8F-11" value="" style="endArrow=classic;html=1;fontSize=14;sourcePerimeterSpacing=8;targetPerimeterSpacing=8;exitX=0.5;exitY=0;exitDx=0;exitDy=0;entryX=1.005;entryY=0.046;entryDx=0;entryDy=0;entryPerimeter=0;" edge="1" parent="1" source="Z31YwW47jr1Y_mebFR8F-4" target="Z31YwW47jr1Y_mebFR8F-1">
          <mxGeometry width="50" height="50" relative="1" as="geometry">
            <mxPoint x="800" y="450" as="sourcePoint" />
            <mxPoint x="670" y="357" as="targetPoint" />
            <Array as="points">
              <mxPoint x="1070" y="369" />
            </Array>
          </mxGeometry>
        </mxCell>
        <mxCell id="Z31YwW47jr1Y_mebFR8F-12" value="Can Manage Transports" style="text;html=1;align=center;verticalAlign=middle;resizable=0;points=[];autosize=1;strokeColor=none;fillColor=none;fontSize=14;" vertex="1" parent="1">
          <mxGeometry x="770" y="350" width="170" height="20" as="geometry" />
        </mxCell>
        <mxCell id="Z31YwW47jr1Y_mebFR8F-14" value="" style="endArrow=classic;html=1;fontSize=14;sourcePerimeterSpacing=8;targetPerimeterSpacing=8;entryX=1;entryY=0.061;entryDx=0;entryDy=0;entryPerimeter=0;" edge="1" parent="1" target="Z31YwW47jr1Y_mebFR8F-2">
          <mxGeometry width="50" height="50" relative="1" as="geometry">
            <mxPoint x="1050" y="520" as="sourcePoint" />
            <mxPoint x="850" y="500" as="targetPoint" />
            <Array as="points">
              <mxPoint x="1050" y="400" />
            </Array>
          </mxGeometry>
        </mxCell>
        <mxCell id="Z31YwW47jr1Y_mebFR8F-15" value="Can Fix Locations" style="text;html=1;align=center;verticalAlign=middle;resizable=0;points=[];autosize=1;strokeColor=none;fillColor=none;fontSize=14;" vertex="1" parent="1">
          <mxGeometry x="790" y="380" width="130" height="20" as="geometry" />
        </mxCell>
        <mxCell id="Z31YwW47jr1Y_mebFR8F-16" value="" style="endArrow=classic;html=1;fontSize=14;sourcePerimeterSpacing=8;targetPerimeterSpacing=8;entryX=0.184;entryY=-0.07;entryDx=0;entryDy=0;exitX=1;exitY=0.25;exitDx=0;exitDy=0;entryPerimeter=0;" edge="1" parent="1" source="Z31YwW47jr1Y_mebFR8F-2" target="Z31YwW47jr1Y_mebFR8F-4">
          <mxGeometry width="50" height="50" relative="1" as="geometry">
            <mxPoint x="960" y="500" as="sourcePoint" />
            <mxPoint x="850" y="500" as="targetPoint" />
            <Array as="points">
              <mxPoint x="1040" y="433" />
            </Array>
          </mxGeometry>
        </mxCell>
        <mxCell id="Z31YwW47jr1Y_mebFR8F-17" value="Get Request About Urgent Trip" style="text;html=1;align=center;verticalAlign=middle;resizable=0;points=[];autosize=1;strokeColor=none;fillColor=none;fontSize=14;" vertex="1" parent="1">
          <mxGeometry x="725" y="410" width="210" height="20" as="geometry" />
        </mxCell>
        <mxCell id="Z31YwW47jr1Y_mebFR8F-18" value="" style="endArrow=classic;html=1;fontSize=14;sourcePerimeterSpacing=8;targetPerimeterSpacing=8;exitX=0;exitY=0;exitDx=0;exitDy=0;entryX=0.995;entryY=0.409;entryDx=0;entryDy=0;entryPerimeter=0;" edge="1" parent="1" source="Z31YwW47jr1Y_mebFR8F-4" target="Z31YwW47jr1Y_mebFR8F-2">
          <mxGeometry width="50" height="50" relative="1" as="geometry">
            <mxPoint x="800" y="550" as="sourcePoint" />
            <mxPoint x="850" y="500" as="targetPoint" />
            <Array as="points">
              <mxPoint x="1020" y="460" />
            </Array>
          </mxGeometry>
        </mxCell>
        <mxCell id="Z31YwW47jr1Y_mebFR8F-19" value="Manage&amp;nbsp; Request" style="text;html=1;align=center;verticalAlign=middle;resizable=0;points=[];autosize=1;strokeColor=none;fillColor=none;fontSize=14;" vertex="1" parent="1">
          <mxGeometry x="780" y="440" width="130" height="20" as="geometry" />
        </mxCell>
        <mxCell id="Z31YwW47jr1Y_mebFR8F-20" value="" style="endArrow=classic;html=1;fontSize=14;sourcePerimeterSpacing=8;targetPerimeterSpacing=8;exitX=0;exitY=0.25;exitDx=0;exitDy=0;entryX=1;entryY=0.588;entryDx=0;entryDy=0;entryPerimeter=0;" edge="1" parent="1" source="Z31YwW47jr1Y_mebFR8F-4" target="Z31YwW47jr1Y_mebFR8F-2">
          <mxGeometry width="50" height="50" relative="1" as="geometry">
            <mxPoint x="800" y="550" as="sourcePoint" />
            <mxPoint x="850" y="500" as="targetPoint" />
            <Array as="points">
              <mxPoint x="1000" y="530" />
              <mxPoint x="1000" y="490" />
            </Array>
          </mxGeometry>
        </mxCell>
        <mxCell id="Z31YwW47jr1Y_mebFR8F-21" value="Do Fuel Cost Calculation" style="text;html=1;align=center;verticalAlign=middle;resizable=0;points=[];autosize=1;strokeColor=none;fillColor=none;fontSize=14;" vertex="1" parent="1">
          <mxGeometry x="750" y="470" width="170" height="20" as="geometry" />
        </mxCell>
        <mxCell id="Z31YwW47jr1Y_mebFR8F-22" value="" style="endArrow=classic;html=1;fontSize=14;sourcePerimeterSpacing=8;targetPerimeterSpacing=8;exitX=0;exitY=0.75;exitDx=0;exitDy=0;" edge="1" parent="1" source="Z31YwW47jr1Y_mebFR8F-4">
          <mxGeometry width="50" height="50" relative="1" as="geometry">
            <mxPoint x="800" y="550" as="sourcePoint" />
            <mxPoint x="680" y="520" as="targetPoint" />
            <Array as="points">
              <mxPoint x="970" y="550" />
              <mxPoint x="970" y="520" />
            </Array>
          </mxGeometry>
        </mxCell>
        <mxCell id="Z31YwW47jr1Y_mebFR8F-23" value="View Office Employee List" style="text;html=1;align=center;verticalAlign=middle;resizable=0;points=[];autosize=1;strokeColor=none;fillColor=none;fontSize=14;" vertex="1" parent="1">
          <mxGeometry x="745" y="500" width="180" height="20" as="geometry" />
        </mxCell>
        <mxCell id="Z31YwW47jr1Y_mebFR8F-25" value="" style="endArrow=classic;html=1;fontSize=14;sourcePerimeterSpacing=8;targetPerimeterSpacing=8;exitX=0;exitY=1;exitDx=0;exitDy=0;" edge="1" parent="1" source="Z31YwW47jr1Y_mebFR8F-4">
          <mxGeometry width="50" height="50" relative="1" as="geometry">
            <mxPoint x="800" y="550" as="sourcePoint" />
            <mxPoint x="680" y="560" as="targetPoint" />
          </mxGeometry>
        </mxCell>
        <mxCell id="Z31YwW47jr1Y_mebFR8F-26" value="Generates Report" style="text;html=1;align=center;verticalAlign=middle;resizable=0;points=[];autosize=1;strokeColor=none;fillColor=none;fontSize=14;" vertex="1" parent="1">
          <mxGeometry x="765" y="540" width="130" height="20" as="geometry" />
        </mxCell>
        <mxCell id="Z31YwW47jr1Y_mebFR8F-27" value="" style="endArrow=classic;html=1;fontSize=14;sourcePerimeterSpacing=8;targetPerimeterSpacing=8;entryX=0.168;entryY=-0.09;entryDx=0;entryDy=0;entryPerimeter=0;exitX=0.355;exitY=-0.022;exitDx=0;exitDy=0;exitPerimeter=0;" edge="1" parent="1" source="Z31YwW47jr1Y_mebFR8F-1" target="Z31YwW47jr1Y_mebFR8F-6">
          <mxGeometry width="50" height="50" relative="1" as="geometry">
            <mxPoint x="310" y="450" as="sourcePoint" />
            <mxPoint x="360" y="400" as="targetPoint" />
            <Array as="points">
              <mxPoint x="583" y="300" />
              <mxPoint x="157" y="300" />
            </Array>
          </mxGeometry>
        </mxCell>
        <mxCell id="Z31YwW47jr1Y_mebFR8F-28" value="View Schedule" style="text;html=1;align=center;verticalAlign=middle;resizable=0;points=[];autosize=1;strokeColor=none;fillColor=none;fontSize=14;" vertex="1" parent="1">
          <mxGeometry x="305" y="280" width="110" height="20" as="geometry" />
        </mxCell>
        <mxCell id="Z31YwW47jr1Y_mebFR8F-30" value="" style="endArrow=classic;html=1;fontSize=14;sourcePerimeterSpacing=8;targetPerimeterSpacing=8;exitX=1;exitY=0.5;exitDx=0;exitDy=0;" edge="1" parent="1" source="Z31YwW47jr1Y_mebFR8F-6">
          <mxGeometry width="50" height="50" relative="1" as="geometry">
            <mxPoint x="310" y="450" as="sourcePoint" />
            <mxPoint x="560" y="360" as="targetPoint" />
            <Array as="points">
              <mxPoint x="560" y="340" />
            </Array>
          </mxGeometry>
        </mxCell>
        <mxCell id="Z31YwW47jr1Y_mebFR8F-31" value="Can Make Request for Urgent Trip" style="text;html=1;align=center;verticalAlign=middle;resizable=0;points=[];autosize=1;strokeColor=none;fillColor=none;fontSize=14;" vertex="1" parent="1">
          <mxGeometry x="265" y="320" width="230" height="20" as="geometry" />
        </mxCell>
        <mxCell id="Z31YwW47jr1Y_mebFR8F-32" value="" style="endArrow=classic;html=1;fontSize=14;sourcePerimeterSpacing=8;targetPerimeterSpacing=8;exitX=-0.029;exitY=0.106;exitDx=0;exitDy=0;entryX=0.75;entryY=1;entryDx=0;entryDy=0;exitPerimeter=0;" edge="1" parent="1" source="Z31YwW47jr1Y_mebFR8F-1" target="Z31YwW47jr1Y_mebFR8F-6">
          <mxGeometry width="50" height="50" relative="1" as="geometry">
            <mxPoint x="310" y="450" as="sourcePoint" />
            <mxPoint x="360" y="400" as="targetPoint" />
            <Array as="points">
              <mxPoint x="215" y="380" />
            </Array>
          </mxGeometry>
        </mxCell>
        <mxCell id="Z31YwW47jr1Y_mebFR8F-33" value="Get Message About Urgent Trip" style="text;html=1;align=center;verticalAlign=middle;resizable=0;points=[];autosize=1;strokeColor=none;fillColor=none;fontSize=14;" vertex="1" parent="1">
          <mxGeometry x="255" y="360" width="210" height="20" as="geometry" />
        </mxCell>
        <mxCell id="Z31YwW47jr1Y_mebFR8F-34" value="" style="endArrow=classic;html=1;fontSize=14;sourcePerimeterSpacing=8;targetPerimeterSpacing=8;exitX=0.408;exitY=1.03;exitDx=0;exitDy=0;exitPerimeter=0;" edge="1" parent="1" source="Z31YwW47jr1Y_mebFR8F-6">
          <mxGeometry width="50" height="50" relative="1" as="geometry">
            <mxPoint x="310" y="450" as="sourcePoint" />
            <mxPoint x="529" y="410" as="targetPoint" />
            <Array as="points">
              <mxPoint x="181" y="410" />
            </Array>
          </mxGeometry>
        </mxCell>
        <mxCell id="Z31YwW47jr1Y_mebFR8F-35" value="Can Search Schedule" style="text;html=1;align=center;verticalAlign=middle;resizable=0;points=[];autosize=1;strokeColor=none;fillColor=none;fontSize=14;" vertex="1" parent="1">
          <mxGeometry x="265" y="390" width="150" height="20" as="geometry" />
        </mxCell>
        <mxCell id="Z31YwW47jr1Y_mebFR8F-36" value="" style="endArrow=classic;html=1;fontSize=14;sourcePerimeterSpacing=8;targetPerimeterSpacing=8;exitX=-0.013;exitY=0.306;exitDx=0;exitDy=0;exitPerimeter=0;entryX=0.176;entryY=1.09;entryDx=0;entryDy=0;entryPerimeter=0;" edge="1" parent="1" source="Z31YwW47jr1Y_mebFR8F-2" target="Z31YwW47jr1Y_mebFR8F-6">
          <mxGeometry width="50" height="50" relative="1" as="geometry">
            <mxPoint x="310" y="450" as="sourcePoint" />
            <mxPoint x="360" y="400" as="targetPoint" />
            <Array as="points">
              <mxPoint x="158" y="440" />
            </Array>
          </mxGeometry>
        </mxCell>
        <mxCell id="Z31YwW47jr1Y_mebFR8F-37" value="View Office Employee List" style="text;html=1;align=center;verticalAlign=middle;resizable=0;points=[];autosize=1;strokeColor=none;fillColor=none;fontSize=14;" vertex="1" parent="1">
          <mxGeometry x="255" y="420" width="180" height="20" as="geometry" />
        </mxCell>
        <mxCell id="Z31YwW47jr1Y_mebFR8F-38" value="" style="endArrow=classic;html=1;fontSize=14;sourcePerimeterSpacing=8;targetPerimeterSpacing=8;exitX=-0.013;exitY=0.555;exitDx=0;exitDy=0;exitPerimeter=0;" edge="1" parent="1" source="Z31YwW47jr1Y_mebFR8F-2">
          <mxGeometry width="50" height="50" relative="1" as="geometry">
            <mxPoint x="310" y="650" as="sourcePoint" />
            <mxPoint x="150" y="520" as="targetPoint" />
            <Array as="points">
              <mxPoint x="150" y="484" />
            </Array>
          </mxGeometry>
        </mxCell>
        <mxCell id="Z31YwW47jr1Y_mebFR8F-39" value="View Schedule" style="text;html=1;align=center;verticalAlign=middle;resizable=0;points=[];autosize=1;strokeColor=none;fillColor=none;fontSize=14;" vertex="1" parent="1">
          <mxGeometry x="295" y="460" width="110" height="20" as="geometry" />
        </mxCell>
        <mxCell id="Z31YwW47jr1Y_mebFR8F-40" value="" style="endArrow=classic;html=1;fontSize=14;sourcePerimeterSpacing=8;targetPerimeterSpacing=8;" edge="1" parent="1">
          <mxGeometry width="50" height="50" relative="1" as="geometry">
            <mxPoint x="530" y="520" as="sourcePoint" />
            <mxPoint x="240" y="520" as="targetPoint" />
            <Array as="points">
              <mxPoint x="370" y="520" />
            </Array>
          </mxGeometry>
        </mxCell>
        <mxCell id="Z31YwW47jr1Y_mebFR8F-41" value="View Transport" style="text;html=1;align=center;verticalAlign=middle;resizable=0;points=[];autosize=1;strokeColor=none;fillColor=none;fontSize=14;" vertex="1" parent="1">
          <mxGeometry x="290" y="500" width="110" height="20" as="geometry" />
        </mxCell>
        <mxCell id="Z31YwW47jr1Y_mebFR8F-42" value="" style="endArrow=classic;html=1;fontSize=14;sourcePerimeterSpacing=8;targetPerimeterSpacing=8;exitX=-0.008;exitY=0.946;exitDx=0;exitDy=0;exitPerimeter=0;entryX=1;entryY=0.75;entryDx=0;entryDy=0;" edge="1" parent="1" source="Z31YwW47jr1Y_mebFR8F-2" target="Z31YwW47jr1Y_mebFR8F-5">
          <mxGeometry width="50" height="50" relative="1" as="geometry">
            <mxPoint x="310" y="650" as="sourcePoint" />
            <mxPoint x="360" y="600" as="targetPoint" />
          </mxGeometry>
        </mxCell>
        <mxCell id="Z31YwW47jr1Y_mebFR8F-43" value="Get Message About Urgent Trip" style="text;html=1;align=center;verticalAlign=middle;resizable=0;points=[];autosize=1;strokeColor=none;fillColor=none;fontSize=14;" vertex="1" parent="1">
          <mxGeometry x="265" y="530" width="210" height="20" as="geometry" />
        </mxCell>
        <mxCell id="Z31YwW47jr1Y_mebFR8F-44" value="" style="endArrow=classic;html=1;fontSize=14;sourcePerimeterSpacing=8;targetPerimeterSpacing=8;exitX=0.5;exitY=1;exitDx=0;exitDy=0;entryX=0.456;entryY=1.012;entryDx=0;entryDy=0;entryPerimeter=0;" edge="1" parent="1" source="Z31YwW47jr1Y_mebFR8F-5" target="Z31YwW47jr1Y_mebFR8F-2">
          <mxGeometry width="50" height="50" relative="1" as="geometry">
            <mxPoint x="310" y="650" as="sourcePoint" />
            <mxPoint x="360" y="600" as="targetPoint" />
            <Array as="points">
              <mxPoint x="190" y="600" />
              <mxPoint x="598" y="600" />
            </Array>
          </mxGeometry>
        </mxCell>
        <mxCell id="Z31YwW47jr1Y_mebFR8F-45" value="Can Search Schedule" style="text;html=1;align=center;verticalAlign=middle;resizable=0;points=[];autosize=1;strokeColor=none;fillColor=none;fontSize=14;" vertex="1" parent="1">
          <mxGeometry x="295" y="580" width="150" height="20" as="geometry" />
        </mxCell>
      </root>
    </mxGraphModel>
  </diagram>
</mxfile>
